<svg version="1.0" xmlns="http://www.w3.org/2000/svg"
 width="1061.654548pt" height="379.000000pt" viewBox="0 0 1061.654548 379.000000"
 preserveAspectRatio="xMidYMid meet">
<rect x="0" y="0" width="1061.654548" height="379.000000" fill="#000000"/>
<g transform="translate(-9.256025,391.000000) scale(0.100000,-0.100000)"
fill="#ffffff" stroke="none">
<path d="M9080 2015 l0 -1895 30 0 30 0 0 1027 c0 866 2 1025 14 1013 7 -8
102 -162 210 -342 l198 -328 99 0 99 0 0 525 0 525 -69 0 c-38 0 -83 -3 -100
-6 l-31 -6 -2 -340 -3 -339 -37 63 c-20 35 -113 189 -207 343 l-171 280 0 688
0 687 -30 0 -30 0 0 -1895z"/>
<path d="M502 2540 c-99 -26 -163 -63 -244 -139 -264 -248 -202 -695 120 -864
196 -104 431 -87 602 41 51 39 130 125 130 142 0 6 -144 100 -153 100 -2 0
-30 -26 -63 -59 -82 -79 -148 -104 -260 -99 -138 7 -242 78 -302 206 -23 49
-27 70 -27 147 0 77 4 98 27 147 34 73 103 142 176 176 48 23 71 27 142 27
108 0 177 -30 253 -108 l53 -54 74 47 c40 25 76 52 78 58 2 7 -30 46 -71 87
-146 146 -335 197 -535 145z"/>
<path d="M3452 2544 c-195 -52 -290 -208 -238 -388 35 -118 126 -179 322 -214
164 -29 205 -54 219 -130 7 -45 -18 -96 -62 -123 -80 -50 -254 -31 -353 37
l-49 33 -47 -67 c-26 -37 -51 -72 -57 -79 -12 -17 95 -85 181 -115 57 -19 87
-23 197 -23 127 0 132 1 203 34 122 57 192 154 194 268 2 124 -35 201 -130
271 -53 38 -109 57 -226 77 -103 18 -170 44 -185 73 -19 36 -13 88 14 121 54
64 195 65 319 1 32 -16 62 -28 66 -25 4 3 29 36 55 75 56 82 56 83 -44 129
-125 58 -269 75 -379 45z"/>
<path d="M8210 2544 c-246 -53 -429 -279 -430 -530 0 -80 32 -203 72 -272 69
-122 204 -221 351 -258 93 -24 251 -15 341 20 231 88 368 299 353 541 -6 101
-25 164 -74 248 -119 202 -368 304 -613 251z m215 -189 c117 -31 202 -108 246
-224 17 -45 20 -71 17 -136 -8 -135 -76 -239 -198 -301 -48 -24 -67 -28 -145
-28 -77 -1 -98 3 -146 25 -202 95 -271 343 -146 524 42 61 126 120 197 139 72
19 103 19 175 1z"/>
<path d="M10202 2544 c-112 -30 -179 -81 -223 -169 -29 -60 -31 -71 -27 -142
6 -94 29 -144 91 -199 54 -47 109 -68 249 -93 110 -20 174 -47 197 -83 22 -35
16 -106 -11 -135 -78 -85 -262 -82 -392 5 l-46 31 -54 -77 c-41 -58 -52 -80
-44 -90 22 -26 135 -81 208 -101 82 -23 214 -28 289 -10 119 27 224 114 257
211 22 68 16 187 -14 244 -29 57 -112 129 -176 153 -28 10 -94 27 -146 35
-107 19 -173 45 -189 74 -19 36 -13 88 14 121 54 64 193 65 320 2 32 -16 62
-28 66 -25 4 2 29 36 55 75 56 82 58 78 -52 130 -115 55 -264 72 -372 43z"/>
<path d="M1265 2532 c-20 -7 -20 -16 -20 -525 l0 -518 100 3 100 3 0 212 0
213 213 0 212 0 0 -215 0 -215 100 0 100 0 -2 523 -3 522 -97 2 -98 1 0 -214
0 -214 -210 0 -210 0 0 193 c0 105 -3 202 -6 215 -6 20 -12 22 -83 21 -42 -1
-85 -4 -96 -7z"/>
<path d="M2305 2532 c-20 -7 -20 -16 -20 -525 l0 -517 381 0 382 0 6 26 c4 15
6 57 5 95 l-2 69 -284 0 -283 0 -1 98 c0 53 -2 107 -3 120 l-3 22 239 0 238 0
0 95 0 95 -235 0 -235 0 -1 80 c-1 44 -2 96 -3 116 l-1 37 275 -2 c151 -1 281
2 288 7 9 6 12 33 10 98 l-3 89 -365 2 c-201 0 -374 -2 -385 -5z"/>
<path d="M4072 2532 c-9 -6 -12 -33 -10 -98 l3 -89 135 -2 c74 -1 143 -2 153
-3 16 0 17 -27 17 -425 l0 -425 100 0 100 0 0 428 0 427 144 -1 c79 -1 149 1
155 5 8 5 11 36 9 97 l-3 89 -395 3 c-217 1 -401 -2 -408 -6z"/>
<path d="M5050 2014 l0 -524 383 2 382 3 3 68 c2 38 1 80 -2 93 l-6 24 -280 0
-280 0 0 120 0 120 235 0 235 0 0 95 0 95 -235 0 -235 0 0 118 0 117 271 -2
c150 -1 278 1 286 4 11 4 13 26 11 97 l-3 91 -382 2 -383 2 0 -525z"/>
<path d="M6010 2014 l0 -524 100 0 100 0 0 165 0 165 105 0 105 0 82 -165 83
-165 107 0 c62 0 108 4 108 10 0 5 -38 85 -85 178 -47 93 -85 172 -85 175 0 3
20 17 44 31 99 58 156 166 157 295 1 156 -79 273 -231 333 -51 21 -72 23 -322
25 l-268 2 0 -525z m543 303 c87 -57 97 -177 24 -255 -42 -44 -79 -52 -234
-52 l-133 0 0 168 0 167 158 -5 c130 -4 163 -8 185 -23z"/>
<path d="M6939 2532 c-5 -53 5 -178 14 -184 7 -5 74 -7 150 -6 l137 3 0 -427
0 -428 100 0 100 0 2 426 3 426 150 2 150 1 3 97 3 96 -406 1 c-223 1 -405 -2
-406 -7z"/>
</g>
</svg>
